<?xml version="1.0" encoding="UTF-8" standalone="no"?>
<!-- Created with Inkscape (http://www.inkscape.org/) -->

<svg
   xmlns:dc="http://purl.org/dc/elements/1.1/"
   xmlns:cc="http://creativecommons.org/ns#"
   xmlns:rdf="http://www.w3.org/1999/02/22-rdf-syntax-ns#"
   xmlns:svg="http://www.w3.org/2000/svg"
   xmlns="http://www.w3.org/2000/svg"
   xmlns:xlink="http://www.w3.org/1999/xlink"
   version="1.1"
   width="410.38794"
   height="84.126122"
   id="svg7624">
  <defs
     id="defs7626">
    <clipPath
       id="clipPath16-9-7-4">
      <path
         d="m 199.493,213.033 c -0.729,-13.065 2.541,-21.997 8.665,-23.672 l 0,0 -0.015,-0.052 0.258,-0.018 c 0.609,-0.161 1.24,-0.25 1.892,-0.265 l 0,0 c 0.257,0.017 0.517,0.044 0.779,0.083 l 0,0 0.292,-0.02 17.528,0 0.004,0.017 c -6.816,0.843 -10.564,10.012 -9.781,23.927 l 0,0 -19.622,0 z"
         id="path18-3-0-4" />
    </clipPath>
    <linearGradient
       x1="0"
       y1="0"
       x2="1"
       y2="0"
       id="linearGradient5052"
       xlink:href="#linearGradient24-4-8"
       gradientUnits="userSpaceOnUse"
       gradientTransform="matrix(20.552675,-20.467089,26.626247,28.65106,204.53008,209.52769)"
       spreadMethod="pad" />
    <linearGradient
       x1="0"
       y1="0"
       x2="1"
       y2="0"
       id="linearGradient24-4-8"
       gradientUnits="userSpaceOnUse"
       gradientTransform="matrix(20.552675,-20.467089,26.626247,28.65106,204.53008,209.52769)"
       spreadMethod="pad">
      <stop
         id="stop26-0-6"
         style="stop-color:#ec1d37;stop-opacity:1"
         offset="0" />
      <stop
         id="stop28-8-0"
         style="stop-color:#ffcc05;stop-opacity:1"
         offset="1" />
    </linearGradient>
    <clipPath
       id="clipPath36-1-5-8">
      <path
         d="m 346.878,236.892 -0.293,0.019 -17.527,0 -0.005,-0.017 c 6.816,-0.843 10.565,-10.012 9.782,-23.926 l 0,0 19.621,0 c 0.729,13.063 -2.54,21.997 -8.665,23.672 l 0,0 0.015,0.052 -0.258,0.017 c -0.608,0.161 -1.24,0.249 -1.892,0.265 l 0,0 c -0.257,-0.017 -0.516,-0.044 -0.778,-0.082"
         id="path38-2-1-9" />
    </clipPath>
    <linearGradient
       x1="0"
       y1="0"
       x2="1"
       y2="0"
       id="linearGradient5054"
       xlink:href="#linearGradient44-6-2"
       gradientUnits="userSpaceOnUse"
       gradientTransform="matrix(4.9838204,-21.723999,23.181343,12.006499,343.33005,231.42203)"
       spreadMethod="pad" />
    <linearGradient
       x1="0"
       y1="0"
       x2="1"
       y2="0"
       id="linearGradient44-6-2"
       gradientUnits="userSpaceOnUse"
       gradientTransform="matrix(4.9838204,-21.723999,23.181343,12.006499,343.33005,231.42203)"
       spreadMethod="pad">
      <stop
         id="stop46-6-3"
         style="stop-color:#ec1d37;stop-opacity:1"
         offset="0" />
      <stop
         id="stop48-2-1"
         style="stop-color:#ffcc05;stop-opacity:1"
         offset="1" />
    </linearGradient>
    <clipPath
       id="clipPath56-3-1-8">
      <path
         d="m 277.207,236.924 -0.293,0.02 -17.527,0 -0.004,-0.017 c 6.815,-0.844 10.564,-10.013 9.781,-23.927 l 0,0 c -0.729,-13.064 2.541,-21.997 8.665,-23.672 l 0,0 -0.014,-0.053 0.257,-0.017 c 0.608,-0.161 1.24,-0.249 1.892,-0.264 l 0,0 c 0.257,0.017 0.516,0.044 0.778,0.082 l 0,0 0.294,-0.019 17.526,0 0.005,0.017 c -6.816,0.842 -10.564,10.011 -9.781,23.926 l 0,0 c 0.729,13.065 -2.541,21.997 -8.666,23.672 l 0,0 0.015,0.052 -0.257,0.018 c -0.609,0.16 -1.241,0.25 -1.892,0.264 l 0,0 c -0.258,-0.016 -0.517,-0.044 -0.779,-0.082"
         id="path58-6-9-3" />
    </clipPath>
    <linearGradient
       x1="0"
       y1="0"
       x2="1"
       y2="0"
       id="linearGradient5056"
       xlink:href="#linearGradient64-6-2"
       gradientUnits="userSpaceOnUse"
       gradientTransform="matrix(7.3092232,-40.854275,42.972183,20.323269,275.53665,232.21725)"
       spreadMethod="pad" />
    <linearGradient
       x1="0"
       y1="0"
       x2="1"
       y2="0"
       id="linearGradient64-6-2"
       gradientUnits="userSpaceOnUse"
       gradientTransform="matrix(7.3092232,-40.854275,42.972183,20.323269,275.53665,232.21725)"
       spreadMethod="pad">
      <stop
         id="stop66-4-2"
         style="stop-color:#ec1d37;stop-opacity:1"
         offset="0" />
      <stop
         id="stop68-8-4"
         style="stop-color:#ffcc05;stop-opacity:1"
         offset="1" />
    </linearGradient>
    <clipPath
       id="clipPath76-9-0-5">
      <path
         d="M 0,425 612,425 612,0 0,0 0,425 z"
         id="path78-7-8-1" />
    </clipPath>
    <clipPath
       id="clipPath88-2-1-7">
      <path
         d="m 256.338,236.742 -0.267,-0.018 -0.016,-0.052 c -7.041,-1.673 -15.235,-10.592 -21.717,-23.639 l 0,0 -0.004,0 c -6.899,-13.915 -15.709,-23.084 -22.99,-23.927 l 0,0 -0.004,-0.017 17.526,0 0.304,0.02 c 0.241,-0.039 0.486,-0.066 0.732,-0.083 l 0,0 c 0.662,0.015 1.341,0.104 2.039,0.265 l 0,0 0.267,0.018 0.015,0.052 c 7.042,1.673 15.236,10.592 21.717,23.639 l 0,0 0.005,0 c 6.898,13.914 15.709,23.083 22.989,23.927 l 0,0 0.005,0.017 -17.527,0 -0.304,-0.02 c -0.24,0.038 -0.485,0.066 -0.732,0.082 l 0,0 c -0.661,-0.014 -1.341,-0.104 -2.038,-0.264"
         id="path90-8-0-5" />
    </clipPath>
    <linearGradient
       x1="0"
       y1="0"
       x2="1"
       y2="0"
       id="linearGradient5058"
       xlink:href="#linearGradient96-2-1"
       gradientUnits="userSpaceOnUse"
       gradientTransform="matrix(37.092232,47.397812,-36.100037,26.252955,225.3307,188.98189)"
       spreadMethod="pad" />
    <linearGradient
       x1="0"
       y1="0"
       x2="1"
       y2="0"
       id="linearGradient96-2-1"
       gradientUnits="userSpaceOnUse"
       gradientTransform="matrix(37.092232,47.397812,-36.100037,26.252955,225.3307,188.98189)"
       spreadMethod="pad">
      <stop
         id="stop98-2-6"
         style="stop-color:#ec1d37;stop-opacity:1"
         offset="0" />
      <stop
         id="stop100-9-9"
         style="stop-color:#ffcc05;stop-opacity:1"
         offset="1" />
    </linearGradient>
    <clipPath
       id="clipPath108-9-7-8">
      <path
         d="M 0,425 612,425 612,0 0,0 0,425 z"
         id="path110-2-5-1" />
    </clipPath>
    <clipPath
       id="clipPath120-7-6-3">
      <path
         d="m 326.009,236.709 -0.268,-0.017 -0.014,-0.052 C 318.685,234.967 310.491,226.048 304.009,213 l 0,0 -0.004,0 c -6.899,-13.915 -15.709,-23.084 -22.99,-23.926 l 0,0 -0.004,-0.017 17.526,0 0.303,0.019 c 0.242,-0.038 0.486,-0.065 0.733,-0.082 l 0,0 c 0.662,0.015 1.341,0.103 2.039,0.264 l 0,0 0.267,0.017 0.014,0.053 c 7.043,1.674 15.236,10.592 21.718,23.64 l 0,0 0.005,0 c 6.898,13.914 15.708,23.083 22.989,23.926 l 0,0 0.005,0.017 -17.527,0 -0.303,-0.02 c -0.241,0.039 -0.486,0.066 -0.733,0.083 l 0,0 c -0.661,-0.016 -1.341,-0.104 -2.038,-0.265"
         id="path122-5-4-3" />
    </clipPath>
    <linearGradient
       x1="0"
       y1="0"
       x2="1"
       y2="0"
       id="linearGradient5060"
       xlink:href="#linearGradient128-6-7"
       gradientUnits="userSpaceOnUse"
       gradientTransform="matrix(36.527721,47.273304,-36.146179,25.673266,295.72412,189.57716)"
       spreadMethod="pad" />
    <linearGradient
       x1="0"
       y1="0"
       x2="1"
       y2="0"
       id="linearGradient128-6-7"
       gradientUnits="userSpaceOnUse"
       gradientTransform="matrix(36.527721,47.273304,-36.146179,25.673266,295.72412,189.57716)"
       spreadMethod="pad">
      <stop
         id="stop130-3-9"
         style="stop-color:#ec1d37;stop-opacity:1"
         offset="0" />
      <stop
         id="stop132-7-8"
         style="stop-color:#ffcc05;stop-opacity:1"
         offset="1" />
    </linearGradient>
    <clipPath
       id="clipPath140-2-9-6">
      <path
         d="M 0,425 612,425 612,0 0,0 0,425 z"
         id="path142-3-7-7" />
    </clipPath>
    <clipPath
       id="clipPath156-9-4-0">
      <path
         d="m 256.338,236.742 -0.267,-0.018 -0.016,-0.052 c -7.041,-1.673 -15.235,-10.592 -21.717,-23.639 l 0,0 -0.004,0 c -6.899,-13.915 -15.709,-23.084 -22.99,-23.927 l 0,0 -0.004,-0.017 9.288,0 0.004,0.017 c 7.281,0.843 16.092,10.012 22.991,23.927 l 0,0 0.004,0 c 6.481,13.047 14.675,21.966 21.717,23.639 l 0,0 0.015,0.052 0.268,0.018 c 0.525,0.109 1.042,0.177 1.547,0.202 l 0,0 -7.762,0 -0.304,-0.02 c -0.24,0.038 -0.485,0.066 -0.732,0.082 l 0,0 c -0.661,-0.014 -1.341,-0.104 -2.038,-0.264 m 11.884,0.202 c 0.058,-0.006 0.117,-0.013 0.175,-0.02 l 0,0 0.304,0.02 -0.479,0 z m -38.876,-47.855 c 0.184,-0.027 0.369,-0.049 0.556,-0.063 l 0,0 c 0.163,0.017 0.327,0.038 0.491,0.063 l 0,0 -1.047,0 z"
         id="path158-3-9-4" />
    </clipPath>
    <mask
       id="mask174-6-1-8">
      <g
         id="g176-0-7-4">
        <g
           clip-path="url(#clipPath164-8-5-5)"
           id="g178-6-0-8">
          <g
             id="g180-2-6-1">
            <g
               id="g182-6-0-6">
              <path
                 d="m -32768,32767 65535,0 0,-65535 -65535,0 0,65535 z"
                 id="path184-1-8-8"
                 style="fill:url(#linearGradient168-9-9-1);stroke:none" />
            </g>
          </g>
        </g>
      </g>
    </mask>
    <clipPath
       id="clipPath164-8-5-5">
      <path
         d="m -32768,32767 65535,0 0,-65535 -65535,0 0,65535 z"
         id="path166-7-3-2" />
    </clipPath>
    <linearGradient
       x1="0"
       y1="0"
       x2="1"
       y2="0"
       id="linearGradient168-9-9-1"
       gradientUnits="userSpaceOnUse"
       gradientTransform="matrix(-42.19223,-53.886806,41.035698,-29.87105,266.63007,247.00723)"
       spreadMethod="pad">
      <stop
         id="stop170-2-4-9"
         style="stop-color:#ffffff;stop-opacity:1"
         offset="0" />
      <stop
         id="stop172-0-1-9"
         style="stop-color:#ffffff;stop-opacity:0"
         offset="1" />
    </linearGradient>
    <linearGradient
       x1="0"
       y1="0"
       x2="1"
       y2="0"
       id="linearGradient5062"
       xlink:href="#linearGradient190-5-0"
       gradientUnits="userSpaceOnUse"
       gradientTransform="matrix(-42.19223,-53.886806,41.035698,-29.87105,266.63007,247.00723)"
       spreadMethod="pad" />
    <linearGradient
       x1="0"
       y1="0"
       x2="1"
       y2="0"
       id="linearGradient190-5-0"
       gradientUnits="userSpaceOnUse"
       gradientTransform="matrix(-42.19223,-53.886806,41.035698,-29.87105,266.63007,247.00723)"
       spreadMethod="pad">
      <stop
         id="stop192-4-6"
         style="stop-color:#ffffff;stop-opacity:1"
         offset="0" />
      <stop
         id="stop194-1-4"
         style="stop-color:#ffffff;stop-opacity:1"
         offset="1" />
    </linearGradient>
    <clipPath
       id="clipPath202-3-5-9">
      <path
         d="m 326.009,236.709 -0.268,-0.017 -0.014,-0.052 C 318.685,234.967 310.491,226.048 304.009,213 l 0,0 -0.004,0 c -6.899,-13.915 -15.709,-23.084 -22.99,-23.926 l 0,0 -0.004,-0.017 9.288,0 0.004,0.017 c 7.282,0.842 16.092,10.011 22.991,23.926 l 0,0 0.004,0 c 6.481,13.048 14.675,21.967 21.717,23.64 l 0,0 0.014,0.052 0.269,0.017 c 0.525,0.11 1.042,0.177 1.547,0.202 l 0,0 -7.762,0 -0.303,-0.02 c -0.241,0.039 -0.486,0.066 -0.733,0.083 l 0,0 c -0.661,-0.016 -1.341,-0.104 -2.038,-0.265 m 11.883,0.202 c 0.059,-0.006 0.117,-0.012 0.176,-0.02 l 0,0 0.304,0.02 -0.48,0 z m -38.875,-47.854 c 0.184,-0.027 0.369,-0.049 0.556,-0.063 l 0,0 c 0.163,0.016 0.327,0.037 0.491,0.063 l 0,0 -1.047,0 z"
         id="path204-6-5-9" />
    </clipPath>
    <mask
       id="mask220-7-4-0">
      <g
         id="g222-5-9-8">
        <g
           clip-path="url(#clipPath210-9-2-8)"
           id="g224-3-8-9">
          <g
             id="g226-5-3-3">
            <g
               id="g228-6-8-1">
              <path
                 d="m -32768,32767 65535,0 0,-65535 -65535,0 0,65535 z"
                 id="path230-2-5-4"
                 style="fill:url(#linearGradient214-2-2-6);stroke:none" />
            </g>
          </g>
        </g>
      </g>
    </mask>
    <clipPath
       id="clipPath210-9-2-8">
      <path
         d="m -32768,32767 65535,0 0,-65535 -65535,0 0,65535 z"
         id="path212-1-2-9" />
    </clipPath>
    <linearGradient
       x1="0"
       y1="0"
       x2="1"
       y2="0"
       id="linearGradient214-2-2-6"
       gradientUnits="userSpaceOnUse"
       gradientTransform="matrix(-41.262432,-53.322544,40.753292,-29.024662,335.42224,246.24113)"
       spreadMethod="pad">
      <stop
         id="stop216-7-7-7"
         style="stop-color:#ffffff;stop-opacity:1"
         offset="0" />
      <stop
         id="stop218-0-0-7"
         style="stop-color:#ffffff;stop-opacity:0"
         offset="1" />
    </linearGradient>
    <linearGradient
       x1="0"
       y1="0"
       x2="1"
       y2="0"
       id="linearGradient5064"
       xlink:href="#linearGradient236-3-7"
       gradientUnits="userSpaceOnUse"
       gradientTransform="matrix(-41.262432,-53.322544,40.753292,-29.024662,335.42224,246.24113)"
       spreadMethod="pad" />
    <linearGradient
       x1="0"
       y1="0"
       x2="1"
       y2="0"
       id="linearGradient236-3-7"
       gradientUnits="userSpaceOnUse"
       gradientTransform="matrix(-41.262432,-53.322544,40.753292,-29.024662,335.42224,246.24113)"
       spreadMethod="pad">
      <stop
         id="stop238-4-1"
         style="stop-color:#ffffff;stop-opacity:1"
         offset="0" />
      <stop
         id="stop240-6-2"
         style="stop-color:#ffffff;stop-opacity:1"
         offset="1" />
    </linearGradient>
  </defs>
  <metadata
     id="metadata7629">
    <rdf:RDF>
      <cc:Work
         rdf:about="">
        <dc:format>image/svg+xml</dc:format>
        <dc:type
           rdf:resource="http://purl.org/dc/dcmitype/StillImage" />
        <dc:title></dc:title>
      </cc:Work>
    </rdf:RDF>
  </metadata>
  <g
     transform="translate(-257.2274,-265.37297)"
     id="layer1">
    <g
       transform="matrix(1.0802336,0,0,0.99996491,-5.8584102,-59.642526)"
       id="g4954">
      <g
         transform="scale(0.96212953,1.0393611)"
         id="text3659-2-5-4"
         style="font-size:53.88106537px;font-style:normal;font-variant:normal;font-weight:normal;font-stretch:normal;line-height:125%;letter-spacing:0px;word-spacing:0px;fill:#000000;font-family:UnJamoDotum">
        <path
           d="m 453.17577,322.63211 8.06678,34.97656 9.23676,0 7.94362,-34.97656 0,34.97656 9.23677,0 0,-44.89069 -13.91673,0 -7.88204,35.7155 -8.12836,-35.7155 -13.79357,0 0,44.89069 9.23677,0 0,-34.97656"
           id="path11670"
           style="font-size:61.57844925px;font-weight:600;font-family:FreeSans;-inkscape-font-specification:FreeSans Semi-Bold" />
        <path
           d="m 533.42115,344.6772 c 0,-4.43365 -2.40157,-7.94362 -7.45099,-10.89939 4.43364,-2.8326 6.15784,-5.4189 6.15784,-9.23676 0,-4.12576 -2.83262,-11.82307 -14.65567,-11.82307 l -20.013,0 0,44.89069 20.19774,0 c 12.62356,0 15.76408,-7.57415 15.76408,-12.93147 m -26.72505,-24.26191 10.03729,0 c 4.24891,0 6.52731,1.78578 6.52731,5.11101 0,3.26366 -2.2784,5.04943 -6.52731,5.04943 l -10.03729,0 0,-10.16044 m 0,17.85775 11.02254,0 c 4.49523,0 6.83521,2.03209 6.83521,5.84995 0,3.75628 -2.33998,5.78838 -6.83521,5.78838 l -11.02254,0 0,-11.63833"
           id="path11672"
           style="font-size:61.57844925px;font-weight:600;font-family:FreeSans;-inkscape-font-specification:FreeSans Semi-Bold" />
        <path
           d="m 540.75668,357.60867 17.54986,0 c 6.8352,0 11.1457,-1.60104 14.16304,-5.23417 3.57155,-4.18733 5.48049,-10.2836 5.48049,-17.24196 0,-6.89678 -1.90894,-12.99306 -5.48049,-17.24197 -3.01734,-3.63312 -7.26626,-5.17259 -14.16304,-5.17259 l -17.54986,0 0,44.89069 m 9.23677,-7.6973 0,-29.49608 8.31309,0 c 6.95836,0 10.40676,4.86471 10.40676,14.77883 0,9.85254 -3.4484,14.71725 -10.40676,14.71725 l -8.31309,0"
           id="path11674"
           style="font-size:61.57844925px;font-weight:600;font-family:FreeSans;-inkscape-font-specification:FreeSans Semi-Bold" />
        <path
           d="m 593.44378,359.20971 c 0,3.1405 -2.33998,5.54206 -5.35732,5.54206 -0.67737,0 -1.16999,-0.0616 -2.27841,-0.36947 l 0,6.46574 c 1.29315,0.18473 2.03209,0.24631 3.07893,0.24631 9.42149,0 10.2836,-5.11101 11.08412,-7.38941 l 13.67041,-39.34863 -8.86729,0 -6.89679,24.20033 -7.32783,-24.20033 -9.48309,0 12.37727,34.60709 0,0.24631"
           id="path11676"
           style="font-size:61.57844925px;font-weight:600;font-family:FreeSans;-inkscape-font-specification:FreeSans Semi-Bold" />
        <path
           d="m 618.24932,324.35631 0,33.25236 8.62098,0 0,-19.95141 c 0,-3.94102 2.77104,-6.52732 6.95837,-6.52732 3.6947,0 5.54206,2.03209 5.54206,5.97311 l 0,20.50562 8.62098,0 0,-22.2914 c 0,-7.32782 -4.06419,-11.51517 -11.1457,-11.51517 -4.49522,0 -7.51257,1.66263 -9.97571,5.35733 l 0,-4.80312 -8.62098,0"
           id="path11678"
           style="font-size:61.57844925px;font-weight:600;font-family:FreeSans;-inkscape-font-specification:FreeSans Semi-Bold" />
      </g>
      <g
         transform="matrix(0.87413253,0,0,0.9443004,2.7458542,-149.34635)"
         id="layer1-3-4">
        <g
           transform="matrix(1.25,0,0,-1.25,26.281368,798.61218)"
           id="g12-4-6">
          <g
             clip-path="url(#clipPath16-9-7-4)"
             id="g14-1-6">
            <g
               id="g20-5-3">
              <g
                 id="g22-0-9">
                <path
                   d="m 199.493,213.033 c -0.729,-13.065 2.541,-21.997 8.665,-23.672 l 0,0 -0.015,-0.052 0.258,-0.018 c 0.609,-0.161 1.24,-0.25 1.892,-0.265 l 0,0 c 0.257,0.017 0.517,0.044 0.779,0.083 l 0,0 0.292,-0.02 17.528,0 0.004,0.017 c -6.816,0.843 -10.564,10.012 -9.781,23.927 l 0,0 -19.622,0 z"
                   id="path30-8-9"
                   style="fill:url(#linearGradient5052);stroke:none" />
              </g>
            </g>
          </g>
        </g>
        <g
           transform="matrix(1.25,0,0,-1.25,26.281368,798.61218)"
           id="g32-3-5">
          <g
             clip-path="url(#clipPath36-1-5-8)"
             id="g34-5-2">
            <g
               id="g40-6-1">
              <g
                 id="g42-5-3">
                <path
                   d="m 346.878,236.892 -0.293,0.019 -17.527,0 -0.005,-0.017 c 6.816,-0.843 10.565,-10.012 9.782,-23.926 l 0,0 19.621,0 c 0.729,13.063 -2.54,21.997 -8.665,23.672 l 0,0 0.015,0.052 -0.258,0.017 c -0.608,0.161 -1.24,0.249 -1.892,0.265 l 0,0 c -0.257,-0.017 -0.516,-0.044 -0.778,-0.082"
                   id="path50-9-0"
                   style="fill:url(#linearGradient5054);stroke:none" />
              </g>
            </g>
          </g>
        </g>
        <g
           transform="matrix(1.25,0,0,-1.25,26.281368,798.61218)"
           id="g52-9-9">
          <g
             clip-path="url(#clipPath56-3-1-8)"
             id="g54-0-9">
            <g
               id="g60-7-1">
              <g
                 id="g62-6-3">
                <path
                   d="m 277.207,236.924 -0.293,0.02 -17.527,0 -0.004,-0.017 c 6.815,-0.844 10.564,-10.013 9.781,-23.927 l 0,0 c -0.729,-13.064 2.541,-21.997 8.665,-23.672 l 0,0 -0.014,-0.053 0.257,-0.017 c 0.608,-0.161 1.24,-0.249 1.892,-0.264 l 0,0 c 0.257,0.017 0.516,0.044 0.778,0.082 l 0,0 0.294,-0.019 17.526,0 0.005,0.017 c -6.816,0.842 -10.564,10.011 -9.781,23.926 l 0,0 c 0.729,13.065 -2.541,21.997 -8.666,23.672 l 0,0 0.015,0.052 -0.257,0.018 c -0.609,0.16 -1.241,0.25 -1.892,0.264 l 0,0 c -0.258,-0.016 -0.517,-0.044 -0.779,-0.082"
                   id="path70-3-4"
                   style="fill:url(#linearGradient5056);stroke:none" />
              </g>
            </g>
          </g>
        </g>
        <g
           transform="matrix(1.25,0,0,-1.25,26.281368,798.61218)"
           id="g72-7-5">
          <g
             clip-path="url(#clipPath76-9-0-5)"
             id="g74-6-8">
            <g
               transform="translate(277.9853,237.0064)"
               id="g80-1-5">
              <path
                 d="M 0,0 C -7.433,-0.023 -16.77,-9.338 -24.029,-23.974 -16.606,-13.22 -8.588,-7.076 -1.947,-7.053 4.689,-7.076 9.318,-13.233 10.8,-24.006 11.628,-9.347 7.431,-0.016 0,0"
                 id="path82-5-7"
                 style="fill:#ffed99;fill-opacity:1;fill-rule:nonzero;stroke:none" />
            </g>
          </g>
        </g>
        <g
           transform="matrix(1.25,0,0,-1.25,26.281368,798.61218)"
           id="g84-0-3">
          <g
             clip-path="url(#clipPath88-2-1-7)"
             id="g86-6-3">
            <g
               id="g92-5-8">
              <g
                 id="g94-0-9">
                <path
                   d="m 256.338,236.742 -0.267,-0.018 -0.016,-0.052 c -7.041,-1.673 -15.235,-10.592 -21.717,-23.639 l 0,0 -0.004,0 c -6.899,-13.915 -15.709,-23.084 -22.99,-23.927 l 0,0 -0.004,-0.017 17.526,0 0.304,0.02 c 0.241,-0.039 0.486,-0.066 0.732,-0.083 l 0,0 c 0.662,0.015 1.341,0.104 2.039,0.265 l 0,0 0.267,0.018 0.015,0.052 c 7.042,1.673 15.236,10.592 21.717,23.639 l 0,0 0.005,0 c 6.898,13.914 15.709,23.083 22.989,23.927 l 0,0 0.005,0.017 -17.527,0 -0.304,-0.02 c -0.24,0.038 -0.485,0.066 -0.732,0.082 l 0,0 c -0.661,-0.014 -1.341,-0.104 -2.038,-0.264"
                   id="path102-8-5"
                   style="fill:url(#linearGradient5058);stroke:none" />
              </g>
            </g>
          </g>
        </g>
        <g
           transform="matrix(1.25,0,0,-1.25,26.281368,798.61218)"
           id="g104-1-5">
          <g
             clip-path="url(#clipPath108-9-7-8)"
             id="g106-2-3">
            <g
               transform="translate(279.9643,188.9936)"
               id="g112-2-8">
              <path
                 d="M 0,0 C 7.433,0.023 16.77,9.338 24.029,23.974 16.606,13.22 8.588,7.076 1.947,7.053 -4.689,7.076 -9.318,13.233 -10.8,24.006 -11.629,9.347 -7.431,0.016 0,0"
                 id="path114-6-6"
                 style="fill:#ffed99;fill-opacity:1;fill-rule:nonzero;stroke:none" />
            </g>
          </g>
        </g>
        <g
           transform="matrix(1.25,0,0,-1.25,26.281368,798.61218)"
           id="g116-9-0">
          <g
             clip-path="url(#clipPath120-7-6-3)"
             id="g118-1-3">
            <g
               id="g124-0-3">
              <g
                 id="g126-4-6">
                <path
                   d="m 326.009,236.709 -0.268,-0.017 -0.014,-0.052 C 318.685,234.967 310.491,226.048 304.009,213 l 0,0 -0.004,0 c -6.899,-13.915 -15.709,-23.084 -22.99,-23.926 l 0,0 -0.004,-0.017 17.526,0 0.303,0.019 c 0.242,-0.038 0.486,-0.065 0.733,-0.082 l 0,0 c 0.662,0.015 1.341,0.103 2.039,0.264 l 0,0 0.267,0.017 0.014,0.053 c 7.043,1.674 15.236,10.592 21.718,23.64 l 0,0 0.005,0 c 6.898,13.914 15.708,23.083 22.989,23.926 l 0,0 0.005,0.017 -17.527,0 -0.303,-0.02 c -0.241,0.039 -0.486,0.066 -0.733,0.083 l 0,0 c -0.661,-0.016 -1.341,-0.104 -2.038,-0.265"
                   id="path134-2-1"
                   style="fill:url(#linearGradient5060);stroke:none" />
              </g>
            </g>
          </g>
        </g>
        <g
           transform="matrix(1.25,0,0,-1.25,26.281368,798.61218)"
           id="g136-7-8">
          <g
             clip-path="url(#clipPath140-2-9-6)"
             id="g138-4-7">
            <g
               transform="translate(347.6561,236.9739)"
               id="g144-0-0">
              <path
                 d="M 0,0 C -7.433,-0.023 -16.77,-9.338 -24.029,-23.974 -16.606,-13.22 -8.588,-7.076 -1.947,-7.053 4.689,-7.076 9.318,-13.233 10.8,-24.006 11.629,-9.347 7.431,-0.016 0,0"
                 id="path146-3-5"
                 style="fill:#ffed99;fill-opacity:1;fill-rule:nonzero;stroke:none" />
            </g>
            <g
               transform="translate(210.2935,189.0261)"
               id="g148-2-1">
              <path
                 d="M 0,0 C 7.433,0.023 16.77,9.338 24.029,23.974 16.606,13.22 8.588,7.076 1.947,7.053 -4.689,7.076 -9.318,13.233 -10.8,24.006 -11.628,9.347 -7.431,0.016 0,0"
                 id="path150-8-1"
                 style="fill:#ffed99;fill-opacity:1;fill-rule:nonzero;stroke:none" />
            </g>
          </g>
        </g>
        <g
           transform="matrix(1.25,0,0,-1.25,26.281368,798.61218)"
           id="g152-0-0">
          <g
             clip-path="url(#clipPath156-9-4-0)"
             id="g154-3-3">
            <g
               id="g160-7-0">
              <g
                 id="g162-0-0" />
              <g
                 mask="url(#mask174-6-1-8)"
                 id="g186-0-4">
                <g
                   id="g188-3-5">
                  <path
                     d="m 256.338,236.742 -0.267,-0.018 -0.016,-0.052 c -7.041,-1.673 -15.235,-10.592 -21.717,-23.639 l 0,0 -0.004,0 c -6.899,-13.915 -15.709,-23.084 -22.99,-23.927 l 0,0 -0.004,-0.017 9.288,0 0.004,0.017 c 7.281,0.843 16.092,10.012 22.991,23.927 l 0,0 0.004,0 c 6.481,13.047 14.675,21.966 21.717,23.639 l 0,0 0.015,0.052 0.268,0.018 c 0.525,0.109 1.042,0.177 1.547,0.202 l 0,0 -7.762,0 -0.304,-0.02 c -0.24,0.038 -0.485,0.066 -0.732,0.082 l 0,0 c -0.661,-0.014 -1.341,-0.104 -2.038,-0.264 m 11.884,0.202 c 0.058,-0.006 0.117,-0.013 0.175,-0.02 l 0,0 0.304,0.02 -0.479,0 z m -38.876,-47.855 c 0.184,-0.027 0.369,-0.049 0.556,-0.063 l 0,0 c 0.163,0.017 0.327,0.038 0.491,0.063 l 0,0 -1.047,0 z"
                     id="path196-4-4"
                     style="fill:url(#linearGradient5062);stroke:none" />
                </g>
              </g>
            </g>
          </g>
        </g>
        <g
           transform="matrix(1.25,0,0,-1.25,26.281368,798.61218)"
           id="g198-9-2">
          <g
             clip-path="url(#clipPath202-3-5-9)"
             id="g200-2-4">
            <g
               id="g206-7-9">
              <g
                 id="g208-4-9" />
              <g
                 mask="url(#mask220-7-4-0)"
                 id="g232-2-9">
                <g
                   id="g234-5-4">
                  <path
                     d="m 326.009,236.709 -0.268,-0.017 -0.014,-0.052 C 318.685,234.967 310.491,226.048 304.009,213 l 0,0 -0.004,0 c -6.899,-13.915 -15.709,-23.084 -22.99,-23.926 l 0,0 -0.004,-0.017 9.288,0 0.004,0.017 c 7.282,0.842 16.092,10.011 22.991,23.926 l 0,0 0.004,0 c 6.481,13.048 14.675,21.967 21.717,23.64 l 0,0 0.014,0.052 0.269,0.017 c 0.525,0.11 1.042,0.177 1.547,0.202 l 0,0 -7.762,0 -0.303,-0.02 c -0.241,0.039 -0.486,0.066 -0.733,0.083 l 0,0 c -0.661,-0.016 -1.341,-0.104 -2.038,-0.265 m 11.883,0.202 c 0.059,-0.006 0.117,-0.012 0.176,-0.02 l 0,0 0.304,0.02 -0.48,0 z m -38.875,-47.854 c 0.184,-0.027 0.369,-0.049 0.556,-0.063 l 0,0 c 0.163,0.016 0.327,0.037 0.491,0.063 l 0,0 -1.047,0 z"
                     id="path242-2-9"
                     style="fill:url(#linearGradient5064);stroke:none" />
                </g>
              </g>
            </g>
          </g>
        </g>
      </g>
      <g
         transform="scale(0.96212952,1.0393611)"
         id="text7971"
         style="font-size:46.18383789px;font-style:normal;font-variant:normal;font-weight:normal;font-stretch:normal;line-height:125%;letter-spacing:0px;word-spacing:0px;fill:#000000;fill-opacity:1;stroke:none;font-family:FreeSans;-inkscape-font-specification:FreeSans">
        <path
           d="m 255.79429,384.19928 5.66286,0 0,-2.21899 -5.66286,0 0,-2.92907 6.42619,0 0,-2.21899 -9.08898,0 0,12.94115 2.66279,0 0,-5.5741"
           id="path11681"
           style="font-size:17.75191307px;font-weight:600;-inkscape-font-specification:FreeSans Semi-Bold" />
        <path
           d="m 264.09886,380.18734 0,9.58604 2.48526,0 0,-5.0948 c 0,-1.45566 0.72783,-2.18349 2.18349,-2.18349 0.26628,0 0.4438,0.0177 0.78108,0.071 l 0,-2.52077 c -0.14201,-0.0177 -0.23077,-0.0177 -0.30178,-0.0177 -1.13612,0 -2.13023,0.74558 -2.66279,2.04147 l 0,-1.88171 -2.48526,0"
           id="path11683"
           style="font-size:17.75191307px;font-weight:600;-inkscape-font-specification:FreeSans Semi-Bold" />
        <path
           d="m 275.06205,380.02758 c -2.75155,0 -4.43798,1.98821 -4.43798,5.20131 0,3.07107 1.66868,4.95278 4.38472,4.95278 2.14798,0 3.88767,-1.22488 4.43798,-3.10658 l -2.44976,0 c -0.30179,0.76333 -0.99411,1.20713 -1.89946,1.20713 -1.66868,0 -1.93496,-1.22489 -1.98821,-2.52078 l 6.42619,0 c 0.0177,-0.21302 0.0177,-0.30178 0.0177,-0.42604 0,-4.2427 -2.57403,-5.30782 -4.49123,-5.30782 m 1.89945,4.08294 -3.81666,0 c 0.15977,-1.45566 0.78109,-2.18349 1.8817,-2.18349 1.15388,0 1.82845,0.78109 1.93496,2.18349"
           id="path11685"
           style="font-size:17.75191307px;font-weight:600;-inkscape-font-specification:FreeSans Semi-Bold" />
        <path
           d="m 285.42889,380.02758 c -2.75154,0 -4.43798,1.98821 -4.43798,5.20131 0,3.07107 1.66868,4.95278 4.38472,4.95278 2.14798,0 3.88767,-1.22488 4.43798,-3.10658 l -2.44976,0 c -0.30178,0.76333 -0.99411,1.20713 -1.89946,1.20713 -1.66868,0 -1.93496,-1.22489 -1.98821,-2.52078 l 6.42619,0 c 0.0177,-0.21302 0.0177,-0.30178 0.0177,-0.42604 0,-4.2427 -2.57403,-5.30782 -4.49123,-5.30782 m 1.89945,4.08294 -3.81666,0 c 0.15977,-1.45566 0.78109,-2.18349 1.88171,-2.18349 1.15387,0 1.82844,0.78109 1.93495,2.18349"
           id="path11687"
           style="font-size:17.75191307px;font-weight:600;-inkscape-font-specification:FreeSans Semi-Bold" />
        <path
           d="m 299.654,379.69029 2.3255,10.08309 2.66278,0 2.29,-10.08309 0,10.08309 2.66279,0 0,-12.94115 -4.01193,0 -2.27225,10.29611 -2.34325,-10.29611 -3.97643,0 0,12.94115 2.66279,0 0,-10.08309"
           id="path11689"
           style="font-size:17.75191307px;font-weight:600;-inkscape-font-specification:FreeSans Semi-Bold" />
        <path
           d="m 320.72801,389.77338 0,-9.58604 -2.48527,0 0,6.00015 c 0,1.13612 -0.79883,1.8817 -2.00596,1.8817 -1.06512,0 -1.59768,-0.56806 -1.59768,-1.72193 l 0,-6.15992 -2.48526,0 0,6.67472 c 0,2.11248 1.17162,3.31961 3.21309,3.31961 1.29589,0 2.16574,-0.4793 2.87581,-1.54442 l 0,1.13613 2.48527,0"
           id="path11691"
           style="font-size:17.75191307px;font-weight:600;-inkscape-font-specification:FreeSans Semi-Bold" />
        <path
           d="m 325.52602,376.83223 -2.48527,0 0,12.94115 2.48527,0 0,-12.94115"
           id="path11693"
           style="font-size:17.75191307px;font-weight:600;-inkscape-font-specification:FreeSans Semi-Bold" />
        <path
           d="m 332.13917,380.38261 -1.38465,0 0,-2.57402 -2.48527,0 0,2.57402 -1.22488,0 0,1.65093 1.22488,0 0,5.89364 c 0,1.50891 0.79884,2.25449 2.43201,2.25449 0.55031,0 0.99411,-0.0533 1.43791,-0.19527 l 0,-1.73969 c -0.24853,0.0355 -0.39055,0.0533 -0.56806,0.0533 -0.65682,0 -0.81659,-0.19527 -0.81659,-1.04737 l 0,-5.21906 1.38465,0 0,-1.65093"
           id="path11695"
           style="font-size:17.75191307px;font-weight:600;-inkscape-font-specification:FreeSans Semi-Bold" />
        <path
           d="m 336.39768,380.18734 -2.48527,0 0,9.58604 2.48527,0 0,-9.58604 m 0,-3.35511 -2.48527,0 0,2.21899 2.48527,0 0,-2.21899"
           id="path11697"
           style="font-size:17.75191307px;font-weight:600;-inkscape-font-specification:FreeSans Semi-Bold" />
        <path
           d="m 349.4151,386.04547 c 0,-1.27813 -0.69233,-2.28999 -2.14798,-3.14208 1.27814,-0.81659 1.77519,-1.56217 1.77519,-2.66279 0,-1.18938 -0.81659,-3.40837 -4.22495,-3.40837 l -5.76938,0 0,12.94115 5.82263,0 c 3.63914,0 4.54449,-2.18349 4.54449,-3.72791 m -7.70433,-6.99425 2.89356,0 c 1.22488,0 1.88171,0.51481 1.88171,1.47341 0,0.94085 -0.65683,1.45566 -1.88171,1.45566 l -2.89356,0 0,-2.92907 m 0,5.14806 3.17759,0 c 1.29589,0 1.97047,0.58581 1.97047,1.68643 0,1.08286 -0.67458,1.66868 -1.97047,1.66868 l -3.17759,0 0,-3.35511"
           id="path11699"
           style="font-size:17.75191307px;font-weight:600;-inkscape-font-specification:FreeSans Semi-Bold" />
        <path
           d="m 355.54174,380.02758 c -2.92907,0 -4.72201,1.93496 -4.72201,5.07704 0,3.15984 1.79294,5.07705 4.73976,5.07705 2.91131,0 4.73976,-1.93496 4.73976,-5.00604 0,-3.2486 -1.75744,-5.14805 -4.75751,-5.14805 m 0.0177,2.00596 c 1.36689,0 2.25449,1.22489 2.25449,3.10659 0,1.79294 -0.9231,3.03557 -2.25449,3.03557 -1.34915,0 -2.2545,-1.24263 -2.2545,-3.07108 0,-1.82844 0.90535,-3.07108 2.2545,-3.07108"
           id="path11701"
           style="font-size:17.75191307px;font-weight:600;-inkscape-font-specification:FreeSans Semi-Bold" />
        <path
           d="m 365.73632,390.18167 c 1.18938,0 2.02372,-0.4438 2.64503,-1.38465 l 0,0.97636 2.48527,0 0,-12.94115 -2.48527,0 0,4.59775 c -0.62131,-0.95861 -1.45565,-1.4024 -2.64503,-1.4024 -2.28999,0 -4.02968,2.20124 -4.02968,5.0948 0,2.80479 1.61542,5.05929 4.02968,5.05929 m 0.55031,-8.07712 c 1.26038,0 2.09472,1.22488 2.09472,3.05333 0,1.73968 -0.85209,2.94682 -2.09472,2.94682 -1.24263,0 -2.09473,-1.22489 -2.09473,-2.98232 0,-1.77519 0.8521,-3.01783 2.09473,-3.01783"
           id="path11703"
           style="font-size:17.75191307px;font-weight:600;-inkscape-font-specification:FreeSans Semi-Bold" />
        <path
           d="m 375.76782,390.23493 c 0,0.90534 -0.67458,1.59767 -1.54442,1.59767 -0.19527,0 -0.33729,-0.0178 -0.65682,-0.10651 l 0,1.86395 c 0.37279,0.0532 0.58581,0.071 0.8876,0.071 2.71604,0 2.96457,-1.47341 3.19534,-2.13023 l 3.94092,-11.34348 -2.55627,0 -1.98822,6.97651 -2.11247,-6.97651 -2.7338,0 3.56814,9.97658 0,0.071"
           id="path11705"
           style="font-size:17.75191307px;font-weight:600;-inkscape-font-specification:FreeSans Semi-Bold" />
        <path
           d="m 388.10845,389.77338 5.05929,0 c 1.97046,0 3.2131,-0.46155 4.08294,-1.50892 1.02961,-1.20713 1.57992,-2.96457 1.57992,-4.97053 0,-1.98821 -0.55031,-3.74566 -1.57992,-4.97054 -0.86984,-1.04736 -2.09473,-1.49116 -4.08294,-1.49116 l -5.05929,0 0,12.94115 m 2.66278,-2.21899 0,-8.50317 2.39651,0 c 2.00597,0 3.00008,1.4024 3.00008,4.26046 0,2.8403 -0.99411,4.24271 -3.00008,4.24271 l -2.39651,0"
           id="path11707"
           style="font-size:17.75191307px;font-weight:600;-inkscape-font-specification:FreeSans Semi-Bold" />
        <path
           d="m 403.29715,390.23493 c 0,0.90534 -0.67457,1.59767 -1.54441,1.59767 -0.19528,0 -0.33729,-0.0178 -0.65683,-0.10651 l 0,1.86395 c 0.37279,0.0532 0.58582,0.071 0.8876,0.071 2.71604,0 2.96457,-1.47341 3.19534,-2.13023 l 3.94093,-11.34348 -2.55628,0 -1.98821,6.97651 -2.11248,-6.97651 -2.73379,0 3.56813,9.97658 0,0.071"
           id="path11709"
           style="font-size:17.75191307px;font-weight:600;-inkscape-font-specification:FreeSans Semi-Bold" />
        <path
           d="m 410.44812,380.18734 0,9.58604 2.48527,0 0,-5.75162 c 0,-1.13612 0.79884,-1.88171 2.00597,-1.88171 1.06511,0 1.59767,0.58582 1.59767,1.72194 l 0,5.91139 2.48527,0 0,-6.4262 c 0,-2.11247 -1.17163,-3.3196 -3.2131,-3.3196 -1.29589,0 -2.16573,0.4793 -2.87581,1.54441 l 0,-1.38465 -2.48527,0"
           id="path11711"
           style="font-size:17.75191307px;font-weight:600;-inkscape-font-specification:FreeSans Semi-Bold" />
        <path
           d="m 423.80256,390.18167 c 1.06511,0 2.04147,-0.46155 2.91131,-1.3669 0,0.49706 0.0533,0.67458 0.28403,0.95861 l 2.69829,0 0,-0.30179 c -0.44379,-0.40829 -0.56806,-0.67457 -0.56806,-1.17162 l 0,-5.32558 c 0,-1.9527 -1.33139,-2.94681 -3.92317,-2.94681 -2.59178,0 -3.94093,1.10062 -4.10069,3.3196 l 2.39651,0 c 0.12426,-0.9941 0.53255,-1.31364 1.75743,-1.31364 0.95861,0 1.43791,0.31954 1.43791,0.95861 0,0.94085 -1.17163,0.9941 -1.98821,1.11837 l -0.99411,0.17752 c -1.89945,0.31953 -2.82256,1.29589 -2.82256,3.01782 0,1.72193 1.17163,2.87581 2.91132,2.87581 m 2.89356,-4.26046 c 0,1.4379 -0.71008,2.25449 -1.97046,2.25449 -0.83434,0 -1.34915,-0.44379 -1.34915,-1.15387 0,-0.74558 0.39055,-1.10062 1.42016,-1.31364 l 0.85209,-0.15977 c 0.65682,-0.12426 0.76333,-0.15977 1.04736,-0.30178 l 0,0.67457"
           id="path11713"
           style="font-size:17.75191307px;font-weight:600;-inkscape-font-specification:FreeSans Semi-Bold" />
        <path
           d="m 431.38984,380.18734 0,9.58604 2.48526,0 0,-5.75162 c 0,-1.17163 0.63907,-1.88171 1.70419,-1.88171 0.83434,0 1.34914,0.47931 1.34914,1.24264 l 0,6.39069 2.48527,0 0,-5.75162 c 0,-1.17163 0.63907,-1.88171 1.70418,-1.88171 0.83434,0 1.34915,0.47931 1.34915,1.24264 l 0,6.39069 2.48527,0 0,-6.78123 c 0,-1.86395 -1.13613,-2.96457 -3.05333,-2.96457 -1.20713,0 -2.05922,0.42604 -2.8048,1.42015 -0.46155,-0.90535 -1.42016,-1.42015 -2.60953,-1.42015 -1.10062,0 -1.8107,0.37279 -2.62729,1.34914 l 0,-1.18938 -2.46751,0"
           id="path11715"
           style="font-size:17.75191307px;font-weight:600;-inkscape-font-specification:FreeSans Semi-Bold" />
        <path
           d="m 449.8435,380.18734 -2.48527,0 0,9.58604 2.48527,0 0,-9.58604 m 0,-3.35511 -2.48527,0 0,2.21899 2.48527,0 0,-2.21899"
           id="path11717"
           style="font-size:17.75191307px;font-weight:600;-inkscape-font-specification:FreeSans Semi-Bold" />
        <path
           d="m 456.29272,382.03354 c 1.01185,0 1.49116,0.47931 1.77519,1.73969 l 2.37875,0 c -0.17751,-2.34325 -1.73969,-3.74565 -4.13619,-3.74565 -2.85806,0 -4.52674,1.8817 -4.52674,5.14805 0,3.15984 1.65093,5.00604 4.49123,5.00604 2.3255,0 3.94093,-1.43791 4.1717,-3.7279 l -2.37875,0 c -0.31954,1.24263 -0.81659,1.72193 -1.77519,1.72193 -1.26039,0 -2.02372,-1.13612 -2.02372,-3.00007 0,-1.33139 0.30178,-3.14209 2.02372,-3.14209"
           id="path11719"
           style="font-size:17.75191307px;font-weight:600;-inkscape-font-specification:FreeSans Semi-Bold" />
        <path
           d="m 463.95433,386.98633 -2.43201,0 c 0.071,2.09472 1.61543,3.19534 4.52674,3.19534 3.3551,0 4.18945,-1.91721 4.18945,-3.2486 0,-1.24263 -0.62132,-2.04147 -1.8817,-2.41426 l -3.14209,-0.90535 c -0.69233,-0.21302 -0.86985,-0.35504 -0.86985,-0.74558 0,-0.53255 0.56807,-0.88759 1.43791,-0.88759 1.18937,0 1.77519,0.42604 1.79294,1.29589 l 2.39651,0 c -0.0355,-2.02372 -1.59768,-3.2486 -4.1717,-3.2486 -2.43201,0 -3.94092,1.22488 -3.94092,3.19534 0,1.8817 1.54441,2.18349 2.09472,2.361 l 2.96457,0.9231 c 0.62132,0.19528 0.83434,0.39055 0.83434,0.78109 0,0.58581 -0.69233,0.94085 -1.8462,0.94085 -1.56217,0 -1.81069,-0.58581 -1.95271,-1.24263"
           id="path11721"
           style="font-size:17.75191307px;font-weight:600;-inkscape-font-specification:FreeSans Semi-Bold" />
        <path
           d="m 486.71201,380.77316 c 0,-3.53263 -3.07108,-4.15395 -5.07704,-4.15395 -3.10659,0 -4.89953,1.45566 -4.89953,3.97643 0,2.00596 1.01186,2.98232 3.63914,3.47937 l 1.81069,0.35504 c 1.77519,0.33729 2.43202,0.83434 2.43202,1.8817 0,1.08287 -0.99411,1.73969 -2.60953,1.73969 -1.8107,0 -2.82256,-0.76333 -2.91132,-2.14798 l -2.59178,0 c 0.15977,2.7693 2.05923,4.27821 5.36108,4.27821 3.33736,0 5.30782,-1.56217 5.30782,-4.18945 0,-2.04147 -1.02961,-3.10659 -3.42612,-3.56814 l -2.02371,-0.39054 c -1.89946,-0.37279 -2.44977,-0.74558 -2.44977,-1.68643 0,-0.97635 0.86985,-1.59767 2.23674,-1.59767 1.68643,0 2.62729,0.71008 2.71604,2.02372 l 2.48527,0"
           id="path11723"
           style="font-size:17.75191307px;font-weight:600;-inkscape-font-specification:FreeSans Semi-Bold" />
        <path
           d="m 491.62291,380.18734 -2.48527,0 0,9.58604 2.48527,0 0,-9.58604 m 0,-3.35511 -2.48527,0 0,2.21899 2.48527,0 0,-2.21899"
           id="path11725"
           style="font-size:17.75191307px;font-weight:600;-inkscape-font-specification:FreeSans Semi-Bold" />
        <path
           d="m 494.00693,380.18734 0,9.58604 2.48527,0 0,-5.75162 c 0,-1.17163 0.63907,-1.88171 1.70418,-1.88171 0.83434,0 1.34915,0.47931 1.34915,1.24264 l 0,6.39069 2.48527,0 0,-5.75162 c 0,-1.17163 0.63907,-1.88171 1.70418,-1.88171 0.83434,0 1.34915,0.47931 1.34915,1.24264 l 0,6.39069 2.48526,0 0,-6.78123 c 0,-1.86395 -1.13612,-2.96457 -3.05333,-2.96457 -1.20712,0 -2.05922,0.42604 -2.8048,1.42015 -0.46155,-0.90535 -1.42015,-1.42015 -2.60953,-1.42015 -1.10062,0 -1.81069,0.37279 -2.62728,1.34914 l 0,-1.18938 -2.46752,0"
           id="path11727"
           style="font-size:17.75191307px;font-weight:600;-inkscape-font-specification:FreeSans Semi-Bold" />
        <path
           d="m 518.46076,389.77338 0,-9.58604 -2.48527,0 0,6.00015 c 0,1.13612 -0.79883,1.8817 -2.00596,1.8817 -1.06512,0 -1.59768,-0.56806 -1.59768,-1.72193 l 0,-6.15992 -2.48526,0 0,6.67472 c 0,2.11248 1.17162,3.31961 3.21309,3.31961 1.29589,0 2.16574,-0.4793 2.87581,-1.54442 l 0,1.13613 2.48527,0"
           id="path11729"
           style="font-size:17.75191307px;font-weight:600;-inkscape-font-specification:FreeSans Semi-Bold" />
        <path
           d="m 523.25876,376.83223 -2.48527,0 0,12.94115 2.48527,0 0,-12.94115"
           id="path11731"
           style="font-size:17.75191307px;font-weight:600;-inkscape-font-specification:FreeSans Semi-Bold" />
        <path
           d="m 528.0257,390.18167 c 1.06512,0 2.04147,-0.46155 2.91132,-1.3669 0,0.49706 0.0533,0.67458 0.28403,0.95861 l 2.69829,0 0,-0.30179 c -0.4438,-0.40829 -0.56806,-0.67457 -0.56806,-1.17162 l 0,-5.32558 c 0,-1.9527 -1.3314,-2.94681 -3.92318,-2.94681 -2.59177,0 -3.94092,1.10062 -4.10069,3.3196 l 2.39651,0 c 0.12426,-0.9941 0.53256,-1.31364 1.75744,-1.31364 0.9586,0 1.4379,0.31954 1.4379,0.95861 0,0.94085 -1.17162,0.9941 -1.98821,1.11837 l -0.99411,0.17752 c -1.89945,0.31953 -2.82255,1.29589 -2.82255,3.01782 0,1.72193 1.17163,2.87581 2.91131,2.87581 m 2.89356,-4.26046 c 0,1.4379 -0.71007,2.25449 -1.97046,2.25449 -0.83434,0 -1.34914,-0.44379 -1.34914,-1.15387 0,-0.74558 0.39054,-1.10062 1.42015,-1.31364 l 0.85209,-0.15977 c 0.65682,-0.12426 0.76333,-0.15977 1.04736,-0.30178 l 0,0.67457"
           id="path11733"
           style="font-size:17.75191307px;font-weight:600;-inkscape-font-specification:FreeSans Semi-Bold" />
        <path
           d="m 539.92668,380.38261 -1.38465,0 0,-2.57402 -2.48527,0 0,2.57402 -1.22488,0 0,1.65093 1.22488,0 0,5.89364 c 0,1.50891 0.79884,2.25449 2.43202,2.25449 0.5503,0 0.9941,-0.0533 1.4379,-0.19527 l 0,-1.73969 c -0.24853,0.0355 -0.39054,0.0533 -0.56806,0.0533 -0.65682,0 -0.81659,-0.19527 -0.81659,-1.04737 l 0,-5.21906 1.38465,0 0,-1.65093"
           id="path11735"
           style="font-size:17.75191307px;font-weight:600;-inkscape-font-specification:FreeSans Semi-Bold" />
        <path
           d="m 544.18522,380.18734 -2.48526,0 0,9.58604 2.48526,0 0,-9.58604 m 0,-3.35511 -2.48526,0 0,2.21899 2.48526,0 0,-2.21899"
           id="path11737"
           style="font-size:17.75191307px;font-weight:600;-inkscape-font-specification:FreeSans Semi-Bold" />
        <path
           d="m 550.84744,380.02758 c -2.92906,0 -4.722,1.93496 -4.722,5.07704 0,3.15984 1.79294,5.07705 4.73976,5.07705 2.91131,0 4.73976,-1.93496 4.73976,-5.00604 0,-3.2486 -1.75744,-5.14805 -4.75752,-5.14805 m 0.0178,2.00596 c 1.36689,0 2.25449,1.22489 2.25449,3.10659 0,1.79294 -0.9231,3.03557 -2.25449,3.03557 -1.34915,0 -2.2545,-1.24263 -2.2545,-3.07108 0,-1.82844 0.90535,-3.07108 2.2545,-3.07108"
           id="path11739"
           style="font-size:17.75191307px;font-weight:600;-inkscape-font-specification:FreeSans Semi-Bold" />
        <path
           d="m 557.45617,380.18734 0,9.58604 2.48526,0 0,-5.75162 c 0,-1.13612 0.79884,-1.88171 2.00597,-1.88171 1.06511,0 1.59767,0.58582 1.59767,1.72194 l 0,5.91139 2.48527,0 0,-6.4262 c 0,-2.11247 -1.17163,-3.3196 -3.2131,-3.3196 -1.29588,0 -2.16573,0.4793 -2.87581,1.54441 l 0,-1.38465 -2.48526,0"
           id="path11741"
           style="font-size:17.75191307px;font-weight:600;-inkscape-font-specification:FreeSans Semi-Bold" />
        <path
           d="m 583.02999,380.77316 c 0,-3.53263 -3.07108,-4.15395 -5.07705,-4.15395 -3.10658,0 -4.89952,1.45566 -4.89952,3.97643 0,2.00596 1.01186,2.98232 3.63914,3.47937 l 1.81069,0.35504 c 1.77519,0.33729 2.43201,0.83434 2.43201,1.8817 0,1.08287 -0.9941,1.73969 -2.60953,1.73969 -1.81069,0 -2.82255,-0.76333 -2.91131,-2.14798 l -2.59178,0 c 0.15977,2.7693 2.05923,4.27821 5.36108,4.27821 3.33735,0 5.30782,-1.56217 5.30782,-4.18945 0,-2.04147 -1.02961,-3.10659 -3.42612,-3.56814 l -2.02372,-0.39054 c -1.89945,-0.37279 -2.44976,-0.74558 -2.44976,-1.68643 0,-0.97635 0.86984,-1.59767 2.23674,-1.59767 1.68643,0 2.62728,0.71008 2.71604,2.02372 l 2.48527,0"
           id="path11743"
           style="font-size:17.75191307px;font-weight:600;-inkscape-font-specification:FreeSans Semi-Bold" />
        <path
           d="m 589.64508,380.02758 c -2.92906,0 -4.72201,1.93496 -4.72201,5.07704 0,3.15984 1.79295,5.07705 4.73976,5.07705 2.91132,0 4.73977,-1.93496 4.73977,-5.00604 0,-3.2486 -1.75745,-5.14805 -4.75752,-5.14805 m 0.0177,2.00596 c 1.3669,0 2.2545,1.22489 2.2545,3.10659 0,1.79294 -0.9231,3.03557 -2.2545,3.03557 -1.34914,0 -2.25449,-1.24263 -2.25449,-3.07108 0,-1.82844 0.90535,-3.07108 2.25449,-3.07108"
           id="path11745"
           style="font-size:17.75191307px;font-weight:600;-inkscape-font-specification:FreeSans Semi-Bold" />
        <path
           d="m 600.65628,380.38261 -1.47341,0 0,-0.94085 c 0,-0.49705 0.21302,-0.74558 0.67457,-0.74558 0.21303,0 0.49706,0.0177 0.71008,0.0533 l 0,-1.86395 c -0.46155,-0.0355 -1.08287,-0.0533 -1.42015,-0.0533 -1.65093,0 -2.44977,0.78109 -2.44977,2.39651 l 0,1.15387 -1.34914,0 0,1.65093 1.34914,0 0,7.73984 2.48527,0 0,-7.73984 1.47341,0 0,-1.65093"
           id="path11747"
           style="font-size:17.75191307px;font-weight:600;-inkscape-font-specification:FreeSans Semi-Bold" />
        <path
           d="m 606.66972,380.38261 -1.38465,0 0,-2.57402 -2.48526,0 0,2.57402 -1.22489,0 0,1.65093 1.22489,0 0,5.89364 c 0,1.50891 0.79883,2.25449 2.43201,2.25449 0.55031,0 0.99411,-0.0533 1.4379,-0.19527 l 0,-1.73969 c -0.24852,0.0355 -0.39054,0.0533 -0.56806,0.0533 -0.65682,0 -0.81659,-0.19527 -0.81659,-1.04737 l 0,-5.21906 1.38465,0 0,-1.65093"
           id="path11749"
           style="font-size:17.75191307px;font-weight:600;-inkscape-font-specification:FreeSans Semi-Bold" />
        <path
           d="m 618.17101,389.77338 2.71605,-9.58604 -2.57403,0 -1.45566,6.71023 -1.4379,-6.71023 -2.48527,0 -1.45566,6.71023 -1.52666,-6.71023 -2.57403,0 2.69829,9.58604 2.55628,0 1.52666,-6.76348 1.43791,6.76348 2.57402,0"
           id="path11751"
           style="font-size:17.75191307px;font-weight:600;-inkscape-font-specification:FreeSans Semi-Bold" />
        <path
           d="m 624.69041,390.18167 c 1.06511,0 2.04147,-0.46155 2.91131,-1.3669 0,0.49706 0.0533,0.67458 0.28403,0.95861 l 2.69829,0 0,-0.30179 c -0.4438,-0.40829 -0.56806,-0.67457 -0.56806,-1.17162 l 0,-5.32558 c 0,-1.9527 -1.3314,-2.94681 -3.92317,-2.94681 -2.59178,0 -3.94093,1.10062 -4.1007,3.3196 l 2.39651,0 c 0.12427,-0.9941 0.53256,-1.31364 1.75744,-1.31364 0.9586,0 1.43791,0.31954 1.43791,0.95861 0,0.94085 -1.17163,0.9941 -1.98822,1.11837 l -0.9941,0.17752 c -1.89946,0.31953 -2.82256,1.29589 -2.82256,3.01782 0,1.72193 1.17163,2.87581 2.91132,2.87581 m 2.89356,-4.26046 c 0,1.4379 -0.71008,2.25449 -1.97046,2.25449 -0.83434,0 -1.34915,-0.44379 -1.34915,-1.15387 0,-0.74558 0.39054,-1.10062 1.42015,-1.31364 l 0.85209,-0.15977 c 0.65682,-0.12426 0.76334,-0.15977 1.04737,-0.30178 l 0,0.67457"
           id="path11753"
           style="font-size:17.75191307px;font-weight:600;-inkscape-font-specification:FreeSans Semi-Bold" />
        <path
           d="m 632.2777,380.18734 0,9.58604 2.48527,0 0,-5.0948 c 0,-1.45566 0.72783,-2.18349 2.18348,-2.18349 0.26628,0 0.4438,0.0177 0.78109,0.071 l 0,-2.52077 c -0.14202,-0.0177 -0.23078,-0.0177 -0.30179,-0.0177 -1.13612,0 -2.13023,0.74558 -2.66278,2.04147 l 0,-1.88171 -2.48527,0"
           id="path11755"
           style="font-size:17.75191307px;font-weight:600;-inkscape-font-specification:FreeSans Semi-Bold" />
        <path
           d="m 643.24087,380.02758 c -2.75154,0 -4.43797,1.98821 -4.43797,5.20131 0,3.07107 1.66868,4.95278 4.38472,4.95278 2.14798,0 3.88767,-1.22488 4.43798,-3.10658 l -2.44977,0 c -0.30178,0.76333 -0.99411,1.20713 -1.89945,1.20713 -1.66868,0 -1.93496,-1.22489 -1.98822,-2.52078 l 6.4262,0 c 0.0177,-0.21302 0.0177,-0.30178 0.0177,-0.42604 0,-4.2427 -2.57403,-5.30782 -4.49124,-5.30782 m 1.89946,4.08294 -3.81666,0 c 0.15976,-1.45566 0.78108,-2.18349 1.8817,-2.18349 1.15387,0 1.82845,0.78109 1.93496,2.18349"
           id="path11757"
           style="font-size:17.75191307px;font-weight:600;-inkscape-font-specification:FreeSans Semi-Bold" />
      </g>
    </g>
  </g>
</svg>
